<svg width="304" height="160" viewBox="0 0 304 160" fill="none" xmlns="http://www.w3.org/2000/svg">
<rect width="304" height="160" fill="#894AF6"/>
<mask id="mask0_2028_95" style="mask-type:luminance" maskUnits="userSpaceOnUse" x="0" y="0" width="304" height="160">
<path d="M304 0H0V160H304V0Z" fill="white"/>
</mask>
<g mask="url(#mask0_2028_95)">
<path d="M68.935 88.6973H56.6091C56.2635 88.6998 55.922 88.7708 55.6037 88.9065C55.2854 89.0422 54.9967 89.2396 54.7542 89.4876C54.5116 89.7357 54.3199 90.0294 54.19 90.3521C54.0602 90.6747 53.9946 91.0199 53.9971 91.3682V103.748C53.9923 104.451 54.2649 105.127 54.7547 105.628C55.2445 106.128 55.9114 106.412 56.6091 106.418H68.935C69.6324 106.412 70.2991 106.128 70.7886 105.627C71.2781 105.127 71.5501 104.451 71.5452 103.748V91.3682C71.5505 90.6652 71.2785 89.989 70.7889 89.4881C70.2994 88.9873 69.6327 88.7027 68.935 88.6973Z" fill="white"/>
<path d="M124.722 53C125.42 53.0055 126.086 53.2899 126.576 53.7904C127.065 54.291 127.338 54.9669 127.333 55.6697V103.748C127.338 104.451 127.065 105.127 126.576 105.628C126.086 106.128 125.42 106.413 124.722 106.418H77.657C76.9594 106.413 76.2922 106.129 75.8025 105.628C75.3126 105.127 75.0403 104.451 75.045 103.748V73.2828C75.0645 72.6139 75.335 71.9774 75.8021 71.5018C76.2691 71.0263 76.8982 70.747 77.5617 70.7205L89.987 70.705C90.6703 70.6984 91.3242 70.424 91.8104 69.9401C92.2966 69.4562 92.5768 68.8007 92.5918 68.1122V55.5636C92.6107 54.8945 92.881 54.2575 93.3481 53.7816C93.8154 53.3057 94.4447 53.0263 95.1085 53H124.722Z" fill="white"/>
<path d="M143.755 91.8179H143.818C144.275 90.8556 145.002 90.0497 145.91 89.5007C146.818 88.9515 147.866 88.6834 148.924 88.7297H150.001V94.6704C149.285 94.2479 148.461 94.0474 147.632 94.0941C144.525 94.0941 143.754 96.3689 143.754 99.3552V106.383H138.156V88.967H143.754L143.755 91.8179Z" fill="white"/>
<path d="M158.63 88.9707V98.2719C158.63 100.48 159.121 102.04 161.429 102.04C163.736 102.04 164.228 100.478 164.228 98.2719V88.9707H169.827V99.461C169.827 105.199 166.165 106.963 161.429 106.963C156.692 106.963 153.029 105.199 153.029 99.461V88.9707H158.63Z" fill="white"/>
<path d="M199.93 88.9707H194.331V106.387H199.93V88.9707Z" fill="white"/>
<path d="M199.93 81.4531H194.331V87.0756H199.93V81.4531Z" fill="white"/>
<path d="M173.012 81.457H178.61V90.701C179.204 89.9777 179.952 89.3977 180.799 89.0043C181.646 88.6108 182.569 88.4139 183.501 88.4278C188.176 88.4278 191.408 92.705 191.408 97.6954C191.408 102.719 188.146 106.998 183.439 106.998C182.496 107.034 181.56 106.821 180.724 106.38C179.888 105.94 179.181 105.287 178.672 104.486H178.61V106.422H173.012V81.457ZM178.68 97.7304C178.659 98.2344 178.738 98.7377 178.915 99.2098C179.091 99.682 179.361 100.113 179.708 100.478C180.054 100.842 180.47 101.132 180.93 101.33C181.391 101.528 181.886 101.63 182.387 101.63C182.888 101.63 183.383 101.528 183.844 101.33C184.304 101.132 184.72 100.842 185.067 100.478C185.413 100.113 185.682 99.682 185.859 99.2098C186.035 98.7377 186.115 98.2344 186.094 97.7304C186.12 97.2237 186.043 96.7171 185.868 96.2415C185.693 95.7657 185.424 95.3308 185.078 94.9631C184.731 94.5953 184.314 94.3026 183.851 94.1025C183.389 93.9023 182.89 93.7993 182.387 93.7993C181.884 93.7993 181.385 93.9023 180.923 94.1025C180.46 94.3026 180.043 94.5953 179.696 94.9631C179.35 95.3308 179.081 95.7657 178.906 96.2415C178.731 96.7171 178.655 97.2237 178.68 97.7304Z" fill="white"/>
<path d="M138.157 53H143.755V62.2468C144.35 61.5234 145.098 60.9436 145.944 60.5501C146.791 60.1567 147.714 59.9596 148.647 59.9735C153.322 59.9735 156.552 64.2494 156.552 69.2398C156.552 74.2638 153.292 78.5423 148.584 78.5423C147.642 78.5785 146.705 78.3657 145.869 77.9251C145.033 77.4844 144.326 76.8313 143.817 76.0305H143.755V77.966H138.157V53ZM143.826 69.2733C143.804 69.7774 143.884 70.2807 144.06 70.7528C144.237 71.225 144.507 71.6563 144.853 72.0206C145.199 72.385 145.615 72.675 146.075 72.8732C146.536 73.0714 147.032 73.1734 147.533 73.1734C148.033 73.1734 148.529 73.0714 148.989 72.8732C149.45 72.675 149.866 72.385 150.212 72.0206C150.558 71.6563 150.828 71.225 151.004 70.7528C151.181 70.2807 151.261 69.7774 151.239 69.2733C151.265 68.7667 151.188 68.2602 151.013 67.7845C150.839 67.3088 150.57 66.8738 150.223 66.5061C149.876 66.1384 149.459 65.8455 148.996 65.6454C148.534 65.4454 148.036 65.3422 147.533 65.3422C147.029 65.3422 146.531 65.4454 146.068 65.6454C145.606 65.8455 145.189 66.1384 144.842 66.5061C144.495 66.8738 144.226 67.3088 144.052 67.7845C143.877 68.2602 143.8 68.7667 143.826 69.2733Z" fill="white"/>
<path d="M164.818 63.4003H164.881C165.337 62.437 166.064 61.6305 166.972 61.0813C167.88 60.532 168.929 60.2645 169.987 60.312H171.063V66.2514C170.347 65.8284 169.523 65.6279 168.695 65.675C165.589 65.675 164.817 67.9483 164.817 70.9362V77.964H159.218V60.5492H164.817L164.818 63.4003Z" fill="white"/>
<path d="M209.353 95.6462L214.777 88.9712H221.609L214.486 97.4003L222.103 106.388H215.091L209.36 99.2912V106.388H203.761V88.9434H209.36L209.353 95.6462Z" fill="white"/>
<path d="M199.864 67.2571L205.287 60.5824H212.119L204.996 69.0113L212.613 77.9985H205.596L199.865 70.9022V77.9985H194.266V60.5586H199.865L199.864 67.2571Z" fill="white"/>
<path d="M230.342 70.2912H218.561C218.561 72.8033 219.76 74.1638 222.067 74.1638C222.621 74.2006 223.174 74.0677 223.652 73.7824C224.129 73.4973 224.51 73.0733 224.744 72.566H230.128C229.235 76.6744 225.696 78.5417 222.095 78.5417C216.864 78.5417 212.955 75.283 212.955 69.2739C212.955 63.4685 216.556 59.9727 221.691 59.9727C227.168 59.9727 230.336 63.7057 230.336 69.6465L230.342 70.2912ZM225.145 66.7271C225.012 65.9573 224.613 65.2596 224.02 64.7569C223.425 64.2541 222.675 63.9785 221.899 63.9785C221.124 63.9785 220.373 64.2541 219.779 64.7569C219.186 65.2596 218.787 65.9573 218.654 66.7271H225.145Z" fill="white"/>
<path d="M238.486 62.7908H238.548C239.032 61.883 239.765 61.1347 240.66 60.6354C241.555 60.136 242.573 59.9066 243.592 59.9746C247.839 59.9746 249.529 62.9261 249.529 67.2034V77.9656H243.931V69.4781C243.931 67.8161 244.177 64.8966 241.41 64.8966C239.131 64.8966 238.486 66.7638 238.486 68.9352V77.9656H232.888V60.5495H238.486V62.7908Z" fill="white"/>
<path d="M191.752 69.2725C191.752 75.1798 187.32 78.5417 182.247 78.5417C177.202 78.5417 172.741 75.2146 172.741 69.2725C172.741 63.3303 177.173 59.9727 182.247 59.9727C187.322 59.9727 191.752 63.3317 191.752 69.2725ZM178.648 69.2725C178.615 69.7697 178.683 70.2685 178.849 70.7382C179.014 71.2077 179.274 71.6378 179.612 72.0019C179.949 72.3662 180.358 72.6565 180.811 72.8551C181.265 73.0536 181.754 73.156 182.249 73.156C182.743 73.156 183.233 73.0536 183.686 72.8551C184.14 72.6565 184.548 72.3662 184.886 72.0019C185.224 71.6378 185.483 71.2077 185.649 70.7382C185.815 70.2685 185.883 69.7697 185.85 69.2725C185.889 68.7721 185.825 68.269 185.661 67.7947C185.498 67.3205 185.239 66.8854 184.901 66.5168C184.563 66.1483 184.153 65.8542 183.696 65.6531C183.24 65.4519 182.747 65.3481 182.249 65.3481C181.751 65.3481 181.258 65.4519 180.802 65.6531C180.345 65.8542 179.935 66.1483 179.597 66.5168C179.259 66.8854 179 67.3205 178.836 67.7947C178.673 68.269 178.609 68.7721 178.648 69.2725Z" fill="white"/>
</g>
</svg>
